<?xml version="1.0" encoding="UTF-8"?>
<svg width="14px" height="14px" viewBox="0 0 14 14" version="1.1" xmlns="http://www.w3.org/2000/svg" xmlns:xlink="http://www.w3.org/1999/xlink">
    <!-- Generator: Sketch 51.2 (57519) - http://www.bohemiancoding.com/sketch -->
    <title>Fill 10</title>
    <desc>Created with Sketch.</desc>
    <defs></defs>
    <g id="Page-1" stroke="none" stroke-width="1" fill="none" fill-rule="evenodd">
        <g id="Twitter_TweetTreatment_TextOnly" transform="translate(-378.000000, -746.000000)" fill="#1A1919">
            <path d="M381.693,747.84 C380.325,747.84 379.124,749.149 379.124,750.641 C379.124,754.42 383.754,758.274 384.752,758.315 C385.75,758.274 390.38,754.42 390.38,750.641 C390.38,749.149 389.179,747.84 387.81,747.84 C386.145,747.84 385.217,749.773 385.208,749.792 C385.056,750.162 384.447,750.162 384.295,749.792 C384.287,749.773 383.358,747.84 381.693,747.84 Z M384.752,759.302 C384.749,759.302 384.746,759.302 384.743,759.302 C383.043,759.271 378.137,754.838 378.137,750.641 C378.137,748.623 379.799,746.853 381.693,746.853 C383.201,746.853 384.215,747.894 384.752,748.649 C385.289,747.894 386.302,746.853 387.81,746.853 C389.705,746.853 391.367,748.623 391.367,750.641 C391.367,754.838 386.461,759.271 384.761,759.302 C384.758,759.302 384.755,759.302 384.752,759.302 Z" id="Fill-10"></path>
        </g>
    </g>
</svg>