<?xml version="1.0" encoding="UTF-8"?>
<svg width="18px" height="12px" viewBox="0 0 18 12" version="1.1" xmlns="http://www.w3.org/2000/svg" xmlns:xlink="http://www.w3.org/1999/xlink">
    <!-- Generator: Sketch 51.2 (57519) - http://www.bohemiancoding.com/sketch -->
    <title>Group</title>
    <desc>Created with Sketch.</desc>
    <defs></defs>
    <g id="Page-1" stroke="none" stroke-width="1" fill="none" fill-rule="evenodd">
        <g id="Twitter_TweetTreatment_TextOnly" transform="translate(-338.000000, -747.000000)" fill="#0A0B09">
            <g id="Group" transform="translate(338.000000, 747.000000)">
                <path d="M16.538,8.456 L14.863,10.131 L14.863,2.963 C14.863,1.602 13.755,0.495 12.395,0.495 L8.018,0.495 C7.745,0.495 7.524,0.716 7.524,0.989 C7.524,1.261 7.745,1.483 8.018,1.483 L12.395,1.483 C13.211,1.483 13.876,2.147 13.876,2.963 L13.876,10.131 L12.201,8.456 C12.008,8.263 11.696,8.263 11.503,8.456 C11.31,8.649 11.31,8.962 11.503,9.154 L14.02,11.672 C14.113,11.764 14.238,11.816 14.369,11.816 C14.5,11.816 14.626,11.764 14.718,11.672 L17.236,9.154 C17.429,8.962 17.429,8.649 17.236,8.456 C17.043,8.263 16.731,8.263 16.538,8.456 Z" id="Fill-13"></path>
                <path d="M5.265,10.961 C4.449,10.961 3.784,10.297 3.784,9.48 L3.784,2.312 L5.459,3.987 C5.556,4.084 5.682,4.132 5.808,4.132 C5.935,4.132 6.061,4.084 6.157,3.987 C6.35,3.794 6.35,3.482 6.157,3.289 L3.64,0.771 C3.447,0.578 3.134,0.578 2.942,0.771 L0.424,3.289 C0.231,3.482 0.231,3.794 0.424,3.987 C0.616,4.18 0.929,4.18 1.122,3.987 L2.797,2.312 L2.797,9.48 C2.797,10.841 3.904,11.948 5.265,11.948 L9.643,11.948 C9.915,11.948 10.136,11.727 10.136,11.455 C10.136,11.182 9.915,10.961 9.643,10.961 L5.265,10.961 Z" id="Fill-14"></path>
            </g>
        </g>
    </g>
</svg>