<?xml version="1.0" encoding="UTF-8"?>
<svg width="28px" height="24px" viewBox="0 0 28 24" version="1.1" xmlns="http://www.w3.org/2000/svg" xmlns:xlink="http://www.w3.org/1999/xlink">
    <!-- Generator: Sketch 51.2 (57519) - http://www.bohemiancoding.com/sketch -->
    <title>Fill 8</title>
    <desc>Created with Sketch.</desc>
    <defs></defs>
    <g id="Page-1" stroke="none" stroke-width="1" fill="none" fill-rule="evenodd">
        <g id="Twitter_TweetTreatment_TextOnly" transform="translate(-712.000000, -574.000000)" fill="#4591C2">
            <path d="M720.731,597.08 C717.486,597.08 714.468,596.129 711.925,594.499 C712.375,594.552 712.832,594.579 713.295,594.579 C715.987,594.579 718.464,593.661 720.43,592.12 C717.916,592.073 715.795,590.412 715.064,588.13 C715.414,588.197 715.774,588.233 716.144,588.233 C716.668,588.233 717.176,588.163 717.658,588.031 C715.03,587.505 713.049,585.182 713.049,582.4 C713.049,582.374 713.049,582.35 713.05,582.326 C713.825,582.757 714.71,583.016 715.652,583.045 C714.11,582.016 713.096,580.256 713.096,578.263 C713.096,577.211 713.38,576.225 713.874,575.376 C716.707,578.852 720.941,581.138 725.715,581.378 C725.616,580.957 725.566,580.519 725.566,580.068 C725.566,576.897 728.139,574.324 731.311,574.324 C732.963,574.324 734.456,575.022 735.505,576.139 C736.813,575.881 738.042,575.402 739.152,574.744 C738.723,576.086 737.812,577.211 736.626,577.922 C737.788,577.783 738.896,577.475 739.925,577.018 C739.156,578.17 738.181,579.181 737.059,579.992 C737.071,580.238 737.076,580.486 737.076,580.735 C737.076,588.326 731.297,597.08 720.731,597.08" id="Fill-8"></path>
        </g>
    </g>
</svg>