<?xml version="1.0" encoding="UTF-8"?>
<svg width="58px" height="59px" viewBox="0 0 58 59" version="1.1" xmlns="http://www.w3.org/2000/svg" xmlns:xlink="http://www.w3.org/1999/xlink">
    <!-- Generator: Sketch 51.2 (57519) - http://www.bohemiancoding.com/sketch -->
    <title>verified</title>
    <desc>Created with Sketch.</desc>
    <defs></defs>
    <g id="Page-1" stroke="none" stroke-width="1" fill="none" fill-rule="evenodd">
        <g id="verified" transform="translate(-3.000000, -6.000000)">
            <polygon id="Shape" points="0 0 64 0 64 72 0 72"></polygon>
            <path d="M3,37.315 C3,41.44 5.162,45.041 8.363,46.939 C8.307,47.406 8.273,47.876 8.273,48.359 C8.273,54.462 12.993,59.404 18.819,59.404 C20.114,59.404 21.361,59.17 22.506,58.718 C24.22,62.4 27.827,64.93 32,64.93 C36.174,64.93 39.782,62.4 41.49,58.717 C42.638,59.167 43.88,59.402 45.18,59.402 C51.006,59.402 55.726,54.462 55.726,48.357 C55.726,47.874 55.689,47.404 55.633,46.937 C58.83,45.04 61,41.44 61,37.314 C61,32.944 58.58,29.164 55.067,27.368 C55.494,26.165 55.725,24.868 55.725,23.503 C55.725,17.399 51.005,12.458 45.18,12.458 C43.878,12.458 42.637,12.69 41.49,13.146 C39.783,9.461 36.175,6.93 32,6.93 C27.827,6.93 24.222,9.46 22.508,13.146 C21.362,12.691 20.115,12.458 18.82,12.458 C12.993,12.458 8.275,17.398 8.275,23.503 C8.275,24.867 8.505,26.165 8.931,27.367 C5.42,29.163 3,32.944 3,37.314 L3,37.315 Z" id="Shape" fill="#1DA1F2" fill-rule="nonzero"></path>
            <path d="M17.87,39.08 L24.885,46.058 C25.47,46.64 26.235,46.931 27.001,46.931 C27.771,46.931 28.543,46.637 29.128,46.048 C29.472,45.702 45.108,30.074 45.108,30.074 C46.28,28.902 46.28,27.004 45.108,25.831 C43.938,24.661 42.038,24.659 40.866,25.831 L26.996,39.694 L22.104,34.826 C20.93,33.658 19.03,33.662 17.862,34.836 C16.694,36.012 16.699,37.911 17.872,39.08 L17.87,39.08 Z" id="Shape" fill="#FFFFFF" fill-rule="nonzero"></path>
        </g>
    </g>
</svg>